# xmcd CD database file
#
# Track frame offsets:
#	150
#	30010
#	68419
#	96135
#	134931
#	148002
#	190097
#	193395
#	215739
#	220255
#	258534
#	297586
#
# Disc length: 4103 seconds
#
# Revision: 0
# Processed by: cddbd v1.4PL0 Copyright (c) Steve Scherf et al.
# Submitted via: NeoAudio 1.40Release
#
DISCID=c610050c
DTITLE=Johnny Heartsman - Still Shinin'
DYEAR=1993
DGENRE=Blues
TTITLE0=Why Do You Treat Me So Bad
TTITLE1=In The Evening (When The Sun Goes Down)
TTITLE2=Amour Cherie
TTITLE3=Move On Down The Line
TTITLE4=In The Groove
TTITLE5=Driftin' Blues
TTITLE6=Give James Some
TTITLE7=I Don't Want No Woman
TTITLE8=Give Steve Some
TTITLE9=Bitter With The Sweet
TTITLE10=Talk To Your Daughter
TTITLE11=Let Johnny Have It
EXTD=YEAR: 1993 ID3G: 0
EXTT0=
EXTT1=
EXTT2=
EXTT3=
EXTT4=
EXTT5=
EXTT6=
EXTT7=
EXTT8=
EXTT9=
EXTT10=
EXTT11=
PLAYORDER=
